<svg width="20" height="20" viewBox="0 0 20 20" fill="none" xmlns="http://www.w3.org/2000/svg">
<path d="M14.0759 2.03211C15.173 2.03527 16.2242 2.45603 17 3.20252C17.7757 3.94901 18.213 4.96055 18.2162 6.01624V13.9836C18.213 15.0393 17.7757 16.0509 17 16.7974C16.2242 17.5438 15.173 17.9646 14.0759 17.9678H5.79618C4.69911 17.9646 3.6479 17.5438 2.87215 16.7974C2.0964 16.0509 1.65914 15.0393 1.65586 13.9836V6.01624C1.65914 4.96055 2.0964 3.94901 2.87215 3.20252C3.6479 2.45603 4.69911 2.03527 5.79618 2.03211H14.0759ZM14.0759 0.438721H5.79618C2.60821 0.438721 0 2.94854 0 6.01624V13.9836C0 17.0513 2.60821 19.5612 5.79618 19.5612H14.0759C17.2639 19.5612 19.8721 17.0513 19.8721 13.9836V6.01624C19.8721 2.94854 17.2639 0.438721 14.0759 0.438721Z" fill="white"/>
<path d="M15.3177 6.0164C15.072 6.0164 14.8319 5.94631 14.6277 5.81498C14.4234 5.68366 14.2642 5.497 14.1702 5.27862C14.0762 5.06023 14.0516 4.81993 14.0995 4.58809C14.1475 4.35625 14.2658 4.1433 14.4395 3.97615C14.6131 3.80901 14.8345 3.69518 15.0754 3.64906C15.3163 3.60295 15.566 3.62662 15.793 3.71707C16.0199 3.80753 16.2139 3.96072 16.3504 4.15726C16.4868 4.3538 16.5597 4.58487 16.5597 4.82125C16.56 4.9783 16.5282 5.13386 16.4659 5.27902C16.4036 5.42417 16.3121 5.55606 16.1967 5.6671C16.0813 5.77815 15.9442 5.86617 15.7934 5.92612C15.6425 5.98606 15.4809 6.01674 15.3177 6.0164ZM9.9358 6.81289C10.5909 6.81289 11.2313 6.99981 11.7759 7.35003C12.3206 7.70025 12.7452 8.19802 12.9958 8.78041C13.2465 9.3628 13.3121 10.0036 13.1843 10.6219C13.0565 11.2402 12.7411 11.8081 12.2779 12.2538C11.8146 12.6995 11.2245 13.0031 10.582 13.1261C9.93948 13.2491 9.27351 13.1859 8.66829 12.9447C8.06307 12.7035 7.54578 12.295 7.18184 11.7708C6.81789 11.2467 6.62364 10.6305 6.62364 10.0001C6.62458 9.15508 6.97384 8.34492 7.59478 7.7474C8.21573 7.14988 9.05765 6.81379 9.9358 6.81289ZM9.9358 5.21949C8.95322 5.21949 7.9927 5.49987 7.17571 6.02517C6.35873 6.55047 5.72196 7.2971 5.34594 8.17064C4.96993 9.04418 4.87154 10.0054 5.06323 10.9328C5.25493 11.8601 5.72809 12.7119 6.42288 13.3805C7.11767 14.0491 8.00289 14.5044 8.96659 14.6889C9.93029 14.8733 10.9292 14.7786 11.837 14.4168C12.7448 14.055 13.5207 13.4422 14.0666 12.6561C14.6125 11.8699 14.9038 10.9456 14.9038 10.0001C14.9038 8.73221 14.3804 7.51624 13.4487 6.6197C12.517 5.72316 11.2534 5.21949 9.9358 5.21949Z" fill="white"/>
</svg>
