<svg width="199" height="36" viewBox="0 0 199 36" fill="none" xmlns="http://www.w3.org/2000/svg">
<path d="M40.1009 28C39.8809 28 39.7009 27.93 39.5609 27.79C39.4209 27.65 39.3509 27.47 39.3509 27.25V7.75C39.3509 7.53 39.4209 7.35 39.5609 7.21C39.7009 7.07 39.8809 7 40.1009 7H43.3709C43.5909 7 43.7709 7.07 43.9109 7.21C44.0509 7.35 44.1209 7.53 44.1209 7.75V15.25H52.2509V7.75C52.2509 7.53 52.3209 7.35 52.4609 7.21C52.6009 7.07 52.7809 7 53.0009 7H56.2709C56.4909 7 56.6709 7.07 56.8109 7.21C56.9509 7.35 57.0209 7.53 57.0209 7.75V27.25C57.0209 27.47 56.9509 27.65 56.8109 27.79C56.6709 27.93 56.4909 28 56.2709 28H53.0009C52.7809 28 52.6009 27.93 52.4609 27.79C52.3209 27.65 52.2509 27.47 52.2509 27.25V19.51H44.1209V27.25C44.1209 27.47 44.0509 27.65 43.9109 27.79C43.7709 27.93 43.5909 28 43.3709 28H40.1009ZM65.73 28.3C64.67 28.3 63.72 28.1 62.88 27.7C62.04 27.28 61.37 26.72 60.87 26.02C60.37 25.32 60.12 24.54 60.12 23.68C60.12 22.26 60.69 21.14 61.83 20.32C62.99 19.5 64.51 18.94 66.39 18.64L70.32 18.07V17.53C70.32 16.75 70.14 16.15 69.78 15.73C69.42 15.31 68.79 15.1 67.89 15.1C67.23 15.1 66.7 15.23 66.3 15.49C65.9 15.75 65.59 16.09 65.37 16.51C65.21 16.77 64.98 16.9 64.68 16.9H61.83C61.61 16.9 61.44 16.84 61.32 16.72C61.2 16.58 61.15 16.42 61.17 16.24C61.17 15.9 61.3 15.5 61.56 15.04C61.82 14.58 62.22 14.13 62.76 13.69C63.3 13.23 63.99 12.85 64.83 12.55C65.67 12.25 66.7 12.1 67.92 12.1C69.18 12.1 70.26 12.25 71.16 12.55C72.06 12.85 72.78 13.27 73.32 13.81C73.86 14.35 74.26 14.98 74.52 15.7C74.78 16.4 74.91 17.16 74.91 17.98V27.25C74.91 27.47 74.84 27.65 74.7 27.79C74.56 27.93 74.38 28 74.16 28H71.22C71.02 28 70.85 27.93 70.71 27.79C70.57 27.65 70.5 27.47 70.5 27.25V26.14C70.24 26.52 69.89 26.88 69.45 27.22C69.01 27.54 68.48 27.8 67.86 28C67.26 28.2 66.55 28.3 65.73 28.3ZM66.93 25.18C67.59 25.18 68.18 25.04 68.7 24.76C69.22 24.48 69.63 24.05 69.93 23.47C70.23 22.89 70.38 22.16 70.38 21.28V20.77L67.59 21.22C66.51 21.4 65.72 21.67 65.22 22.03C64.72 22.39 64.47 22.83 64.47 23.35C64.47 23.73 64.58 24.06 64.8 24.34C65.04 24.62 65.35 24.83 65.73 24.97C66.11 25.11 66.51 25.18 66.93 25.18ZM79.2623 28C79.0623 28 78.8923 27.93 78.7523 27.79C78.6123 27.65 78.5423 27.47 78.5423 27.25V13.15C78.5423 12.93 78.6123 12.75 78.7523 12.61C78.8923 12.47 79.0623 12.4 79.2623 12.4H86.1023C88.3423 12.4 89.9823 12.8 91.0223 13.6C92.0823 14.38 92.6123 15.44 92.6123 16.78C92.6123 17.58 92.4623 18.22 92.1623 18.7C91.8623 19.16 91.4423 19.56 90.9023 19.9C91.5823 20.22 92.1123 20.7 92.4923 21.34C92.8923 21.96 93.0923 22.66 93.0923 23.44C93.0923 24.86 92.5423 25.98 91.4423 26.8C90.3423 27.6 88.6923 28 86.4923 28H79.2623ZM82.8623 25.06H86.2223C86.9223 25.06 87.4823 24.93 87.9023 24.67C88.3423 24.39 88.5623 23.96 88.5623 23.38C88.5623 22.78 88.3623 22.35 87.9623 22.09C87.5623 21.83 86.9823 21.7 86.2223 21.7H82.8623V25.06ZM82.8623 18.64H86.1023C86.8223 18.64 87.3923 18.49 87.8123 18.19C88.2323 17.89 88.4423 17.46 88.4423 16.9C88.4423 16.32 88.2323 15.92 87.8123 15.7C87.3923 15.46 86.8223 15.34 86.1023 15.34H82.8623V18.64ZM97.0448 28C96.8648 28 96.7048 27.93 96.5648 27.79C96.4248 27.65 96.3548 27.48 96.3548 27.28V13.15C96.3548 12.93 96.4248 12.75 96.5648 12.61C96.7048 12.47 96.8748 12.4 97.0748 12.4H100.075C100.295 12.4 100.475 12.47 100.615 12.61C100.755 12.75 100.825 12.93 100.825 13.15V24.55L99.6248 23.86L107.455 12.88C107.555 12.74 107.665 12.63 107.785 12.55C107.925 12.45 108.095 12.4 108.295 12.4H110.995C111.195 12.4 111.365 12.47 111.505 12.61C111.645 12.75 111.715 12.91 111.715 13.09V27.25C111.715 27.47 111.645 27.65 111.505 27.79C111.365 27.93 111.185 28 110.965 28H107.965C107.765 28 107.595 27.93 107.455 27.79C107.315 27.65 107.245 27.47 107.245 27.25V16.3L108.475 16.51L100.585 27.52C100.505 27.66 100.395 27.78 100.255 27.88C100.115 27.96 99.9548 28 99.7748 28H97.0448ZM115.971 28C115.771 28 115.601 27.93 115.461 27.79C115.321 27.65 115.251 27.47 115.251 27.25V13.15C115.251 12.93 115.321 12.75 115.461 12.61C115.601 12.47 115.771 12.4 115.971 12.4H125.721C125.941 12.4 126.121 12.47 126.261 12.61C126.401 12.75 126.471 12.93 126.471 13.15V15.19C126.471 15.41 126.401 15.59 126.261 15.73C126.121 15.87 125.941 15.94 125.721 15.94H119.721V27.25C119.721 27.47 119.651 27.65 119.511 27.79C119.371 27.93 119.191 28 118.971 28H115.971ZM133.406 28.3C132.346 28.3 131.396 28.1 130.556 27.7C129.716 27.28 129.046 26.72 128.546 26.02C128.046 25.32 127.796 24.54 127.796 23.68C127.796 22.26 128.366 21.14 129.506 20.32C130.666 19.5 132.186 18.94 134.066 18.64L137.996 18.07V17.53C137.996 16.75 137.816 16.15 137.456 15.73C137.096 15.31 136.466 15.1 135.566 15.1C134.906 15.1 134.376 15.23 133.976 15.49C133.576 15.75 133.266 16.09 133.046 16.51C132.886 16.77 132.656 16.9 132.356 16.9H129.506C129.286 16.9 129.116 16.84 128.996 16.72C128.876 16.58 128.826 16.42 128.846 16.24C128.846 15.9 128.976 15.5 129.236 15.04C129.496 14.58 129.896 14.13 130.436 13.69C130.976 13.23 131.666 12.85 132.506 12.55C133.346 12.25 134.376 12.1 135.596 12.1C136.856 12.1 137.936 12.25 138.836 12.55C139.736 12.85 140.456 13.27 140.996 13.81C141.536 14.35 141.936 14.98 142.196 15.7C142.456 16.4 142.586 17.16 142.586 17.98V27.25C142.586 27.47 142.516 27.65 142.376 27.79C142.236 27.93 142.056 28 141.836 28H138.896C138.696 28 138.526 27.93 138.386 27.79C138.246 27.65 138.176 27.47 138.176 27.25V26.14C137.916 26.52 137.566 26.88 137.126 27.22C136.686 27.54 136.156 27.8 135.536 28C134.936 28.2 134.226 28.3 133.406 28.3ZM134.606 25.18C135.266 25.18 135.856 25.04 136.376 24.76C136.896 24.48 137.306 24.05 137.606 23.47C137.906 22.89 138.056 22.16 138.056 21.28V20.77L135.266 21.22C134.186 21.4 133.396 21.67 132.896 22.03C132.396 22.39 132.146 22.83 132.146 23.35C132.146 23.73 132.256 24.06 132.476 24.34C132.716 24.62 133.026 24.83 133.406 24.97C133.786 25.11 134.186 25.18 134.606 25.18ZM150.958 28C150.738 28 150.558 27.93 150.418 27.79C150.278 27.65 150.208 27.47 150.208 27.25V15.94H145.498C145.278 15.94 145.098 15.87 144.958 15.73C144.818 15.59 144.748 15.41 144.748 15.19V13.15C144.748 12.93 144.818 12.75 144.958 12.61C145.098 12.47 145.278 12.4 145.498 12.4H159.328C159.548 12.4 159.728 12.47 159.868 12.61C160.008 12.75 160.078 12.93 160.078 13.15V15.19C160.078 15.41 160.008 15.59 159.868 15.73C159.728 15.87 159.548 15.94 159.328 15.94H154.618V27.25C154.618 27.47 154.548 27.65 154.408 27.79C154.268 27.93 154.098 28 153.898 28H150.958ZM169.53 28.3C167.87 28.3 166.48 28.03 165.36 27.49C164.24 26.93 163.38 26.14 162.78 25.12C162.2 24.1 161.88 22.91 161.82 21.55C161.8 21.15 161.79 20.7 161.79 20.2C161.79 19.68 161.8 19.23 161.82 18.85C161.88 17.47 162.22 16.28 162.84 15.28C163.46 14.26 164.33 13.48 165.45 12.94C166.57 12.38 167.93 12.1 169.53 12.1C171.11 12.1 172.46 12.38 173.58 12.94C174.7 13.48 175.57 14.26 176.19 15.28C176.81 16.28 177.15 17.47 177.21 18.85C177.25 19.23 177.27 19.68 177.27 20.2C177.27 20.7 177.25 21.15 177.21 21.55C177.15 22.91 176.82 24.1 176.22 25.12C175.64 26.14 174.79 26.93 173.67 27.49C172.55 28.03 171.17 28.3 169.53 28.3ZM169.53 25C170.51 25 171.25 24.7 171.75 24.1C172.25 23.48 172.52 22.58 172.56 21.4C172.58 21.1 172.59 20.7 172.59 20.2C172.59 19.7 172.58 19.3 172.56 19C172.52 17.84 172.25 16.95 171.75 16.33C171.25 15.71 170.51 15.4 169.53 15.4C168.55 15.4 167.8 15.71 167.28 16.33C166.78 16.95 166.51 17.84 166.47 19C166.45 19.3 166.44 19.7 166.44 20.2C166.44 20.7 166.45 21.1 166.47 21.4C166.51 22.58 166.78 23.48 167.28 24.1C167.8 24.7 168.55 25 169.53 25ZM181.158 33.7C180.938 33.7 180.758 33.63 180.618 33.49C180.478 33.35 180.408 33.17 180.408 32.95V13.15C180.408 12.93 180.478 12.75 180.618 12.61C180.758 12.47 180.938 12.4 181.158 12.4H184.008C184.228 12.4 184.408 12.47 184.548 12.61C184.688 12.75 184.758 12.93 184.758 13.15V14.29C185.238 13.65 185.858 13.13 186.618 12.73C187.378 12.31 188.328 12.1 189.468 12.1C190.508 12.1 191.408 12.27 192.168 12.61C192.948 12.93 193.598 13.4 194.118 14.02C194.658 14.62 195.068 15.35 195.348 16.21C195.648 17.07 195.818 18.04 195.858 19.12C195.878 19.5 195.888 19.86 195.888 20.2C195.888 20.54 195.878 20.91 195.858 21.31C195.838 22.33 195.678 23.27 195.378 24.13C195.098 24.99 194.688 25.73 194.148 26.35C193.608 26.97 192.948 27.45 192.168 27.79C191.408 28.13 190.508 28.3 189.468 28.3C188.448 28.3 187.558 28.12 186.798 27.76C186.058 27.38 185.448 26.87 184.968 26.23V32.95C184.968 33.17 184.898 33.35 184.758 33.49C184.618 33.63 184.448 33.7 184.248 33.7H181.158ZM188.118 24.7C188.878 24.7 189.478 24.54 189.918 24.22C190.358 23.88 190.668 23.44 190.848 22.9C191.048 22.36 191.168 21.77 191.208 21.13C191.248 20.51 191.248 19.89 191.208 19.27C191.168 18.63 191.048 18.04 190.848 17.5C190.668 16.96 190.358 16.53 189.918 16.21C189.478 15.87 188.878 15.7 188.118 15.7C187.378 15.7 186.778 15.87 186.318 16.21C185.858 16.55 185.528 16.98 185.328 17.5C185.128 18.02 185.008 18.58 184.968 19.18C184.948 19.54 184.938 19.91 184.938 20.29C184.938 20.67 184.948 21.05 184.968 21.43C184.988 21.99 185.108 22.52 185.328 23.02C185.568 23.5 185.908 23.9 186.348 24.22C186.808 24.54 187.398 24.7 188.118 24.7Z" fill="white"/>
<rect y="7.89136" width="9.78261" height="9.78261" transform="rotate(-30 0 7.89136)" fill="#FFB82B"/>
<rect x="4.13086" y="18.0002" width="10" height="10" fill="#FFB82B"/>
<rect x="18.1309" y="5.00024" width="10" height="10" fill="#FFB82B"/>
<rect x="18.1309" y="18.0002" width="10" height="10" fill="#FFB82B"/>
</svg>
